<mxfile host="app.diagrams.net" agent="Mozilla/5.0 (Windows NT 10.0; Win64; x64) AppleWebKit/537.36 (KHTML, like Gecko) Chrome/130.0.0.0 Safari/537.36" version="24.8.3">
  <diagram name="Trang-1" id="CtEdNQNIqknJLUt9sipx">
    <mxGraphModel dx="1411" dy="863" grid="0" gridSize="10" guides="1" tooltips="1" connect="1" arrows="1" fold="1" page="1" pageScale="1" pageWidth="827" pageHeight="1169" math="0" shadow="0">
      <root>
        <mxCell id="0" />
        <mxCell id="1" parent="0" />
        <mxCell id="HQ5-qCOEkH6bOFP-6_Wn-3" style="edgeStyle=orthogonalEdgeStyle;rounded=0;orthogonalLoop=1;jettySize=auto;html=1;" edge="1" parent="1" source="HQ5-qCOEkH6bOFP-6_Wn-1">
          <mxGeometry relative="1" as="geometry">
            <mxPoint x="317.0092010498047" y="335" as="targetPoint" />
          </mxGeometry>
        </mxCell>
        <mxCell id="HQ5-qCOEkH6bOFP-6_Wn-1" value="Start" style="ellipse;whiteSpace=wrap;html=1;fillColor=#dae8fc;strokeColor=#6c8ebf;" vertex="1" parent="1">
          <mxGeometry x="77" y="295" width="120" height="80" as="geometry" />
        </mxCell>
        <mxCell id="HQ5-qCOEkH6bOFP-6_Wn-5" style="edgeStyle=orthogonalEdgeStyle;rounded=0;orthogonalLoop=1;jettySize=auto;html=1;fillColor=#dae8fc;strokeColor=#6c8ebf;" edge="1" parent="1">
          <mxGeometry relative="1" as="geometry">
            <mxPoint x="608.1203460693359" y="334" as="targetPoint" />
            <mxPoint x="490" y="334" as="sourcePoint" />
          </mxGeometry>
        </mxCell>
        <mxCell id="HQ5-qCOEkH6bOFP-6_Wn-9" style="edgeStyle=orthogonalEdgeStyle;rounded=0;orthogonalLoop=1;jettySize=auto;html=1;entryX=1;entryY=0.5;entryDx=0;entryDy=0;" edge="1" parent="1" source="HQ5-qCOEkH6bOFP-6_Wn-7" target="HQ5-qCOEkH6bOFP-6_Wn-8">
          <mxGeometry relative="1" as="geometry" />
        </mxCell>
        <mxCell id="HQ5-qCOEkH6bOFP-6_Wn-7" value="&lt;br&gt; Sort Input Array by Arrival Time (Ascending)&lt;div&gt;&lt;br/&gt;&lt;/div&gt;" style="rounded=0;whiteSpace=wrap;html=1;" vertex="1" parent="1">
          <mxGeometry x="610" y="460" width="176" height="86" as="geometry" />
        </mxCell>
        <mxCell id="HQ5-qCOEkH6bOFP-6_Wn-18" style="edgeStyle=orthogonalEdgeStyle;rounded=0;orthogonalLoop=1;jettySize=auto;html=1;entryX=1;entryY=0.5;entryDx=0;entryDy=0;" edge="1" parent="1" source="HQ5-qCOEkH6bOFP-6_Wn-8" target="HQ5-qCOEkH6bOFP-6_Wn-17">
          <mxGeometry relative="1" as="geometry" />
        </mxCell>
        <mxCell id="HQ5-qCOEkH6bOFP-6_Wn-8" value="&lt;br&gt;Initialize ReadyQueue with&amp;nbsp;First Process in Input[] &amp;nbsp;-&amp;gt; Set Start, Finish, Response &amp;nbsp;Waiting, and TaT Times  &lt;div&gt;&lt;br/&gt;&lt;/div&gt;" style="rounded=0;whiteSpace=wrap;html=1;" vertex="1" parent="1">
          <mxGeometry x="297" y="453" width="223" height="100" as="geometry" />
        </mxCell>
        <mxCell id="HQ5-qCOEkH6bOFP-6_Wn-20" style="edgeStyle=orthogonalEdgeStyle;rounded=0;orthogonalLoop=1;jettySize=auto;html=1;entryX=0;entryY=0.5;entryDx=0;entryDy=0;" edge="1" parent="1" source="HQ5-qCOEkH6bOFP-6_Wn-11" target="HQ5-qCOEkH6bOFP-6_Wn-19">
          <mxGeometry relative="1" as="geometry" />
        </mxCell>
        <mxCell id="HQ5-qCOEkH6bOFP-6_Wn-11" value="&#xa;While (iTerminated &amp;lt; n)&#xa;&#xa;" style="rounded=0;whiteSpace=wrap;html=1;fillColor=#dae8fc;strokeColor=#6c8ebf;" vertex="1" parent="1">
          <mxGeometry x="70" y="650" width="172" height="76" as="geometry" />
        </mxCell>
        <mxCell id="HQ5-qCOEkH6bOFP-6_Wn-13" value="&lt;br&gt;&lt;br style=&quot;forced-color-adjust: none;&quot;&gt;&lt;br&gt;&lt;div&gt;&lt;span style=&quot;white-space: pre;&quot;&gt;&#x9;&lt;/span&gt;Input Number of Processes (n) -&amp;gt; Store in iNumberOfProcess&lt;div style=&quot;forced-color-adjust: none;&quot;&gt;&lt;br style=&quot;forced-color-adjust: none; color: rgb(0, 0, 0); font-family: Helvetica; font-size: 12px; font-style: normal; font-variant-ligatures: normal; font-variant-caps: normal; font-weight: 400; letter-spacing: normal; orphans: 2; text-align: center; text-indent: 0px; text-transform: none; widows: 2; word-spacing: 0px; -webkit-text-stroke-width: 0px; white-space: normal; background-color: rgb(251, 251, 251); text-decoration-thickness: initial; text-decoration-style: initial; text-decoration-color: initial;&quot;&gt;&lt;br&gt;&lt;br&gt;&lt;/div&gt;&lt;/div&gt;" style="shape=parallelogram;perimeter=parallelogramPerimeter;whiteSpace=wrap;html=1;fixedSize=1;" vertex="1" parent="1">
          <mxGeometry x="309" y="289" width="215" height="88" as="geometry" />
        </mxCell>
        <mxCell id="HQ5-qCOEkH6bOFP-6_Wn-15" value="&lt;br&gt;&lt;br style=&quot;forced-color-adjust: none;&quot;&gt;&amp;nbsp; &amp;nbsp; &amp;nbsp;Input Process Details&amp;nbsp;(PID, Arrival Time, Burst Time)&amp;nbsp;-&amp;gt; Store in Array Input[]&lt;div style=&quot;forced-color-adjust: none;&quot;&gt;&lt;br style=&quot;forced-color-adjust: none; color: rgb(0, 0, 0); font-family: Helvetica; font-size: 12px; font-style: normal; font-variant-ligatures: normal; font-variant-caps: normal; font-weight: 400; letter-spacing: normal; orphans: 2; text-align: center; text-indent: 0px; text-transform: none; widows: 2; word-spacing: 0px; -webkit-text-stroke-width: 0px; white-space: normal; background-color: rgb(251, 251, 251); text-decoration-thickness: initial; text-decoration-style: initial; text-decoration-color: initial;&quot;&gt;&lt;br&gt;&lt;br&gt;&lt;/div&gt;" style="shape=parallelogram;perimeter=parallelogramPerimeter;whiteSpace=wrap;html=1;fixedSize=1;" vertex="1" parent="1">
          <mxGeometry x="602" y="295" width="262" height="102" as="geometry" />
        </mxCell>
        <mxCell id="HQ5-qCOEkH6bOFP-6_Wn-16" style="edgeStyle=orthogonalEdgeStyle;rounded=0;orthogonalLoop=1;jettySize=auto;html=1;entryX=0.701;entryY=0.029;entryDx=0;entryDy=0;entryPerimeter=0;" edge="1" parent="1" source="HQ5-qCOEkH6bOFP-6_Wn-15" target="HQ5-qCOEkH6bOFP-6_Wn-7">
          <mxGeometry relative="1" as="geometry" />
        </mxCell>
        <mxCell id="HQ5-qCOEkH6bOFP-6_Wn-17" value="&#xa;&lt;br style=&quot;forced-color-adjust: none; color: rgb(0, 0, 0); font-family: Helvetica; font-size: 12px; font-style: normal; font-variant-ligatures: normal; font-variant-caps: normal; font-weight: 400; letter-spacing: normal; orphans: 2; text-align: center; text-indent: 0px; text-transform: none; widows: 2; word-spacing: 0px; -webkit-text-stroke-width: 0px; white-space: normal; background-color: rgb(251, 251, 251); text-decoration-thickness: initial; text-decoration-style: initial; text-decoration-color: initial;&quot;&gt;&lt;span style=&quot;color: rgb(0, 0, 0); font-family: Helvetica; font-size: 12px; font-style: normal; font-variant-ligatures: normal; font-variant-caps: normal; font-weight: 400; letter-spacing: normal; orphans: 2; text-align: center; text-indent: 0px; text-transform: none; widows: 2; word-spacing: 0px; -webkit-text-stroke-width: 0px; white-space: normal; background-color: rgb(251, 251, 251); text-decoration-thickness: initial; text-decoration-style: initial; text-decoration-color: initial; display: inline !important; float: none;&quot;&gt;Print Ready Queue&lt;/span&gt;&lt;br style=&quot;forced-color-adjust: none; color: rgb(0, 0, 0); font-family: Helvetica; font-size: 12px; font-style: normal; font-variant-ligatures: normal; font-variant-caps: normal; font-weight: 400; letter-spacing: normal; orphans: 2; text-align: center; text-indent: 0px; text-transform: none; widows: 2; word-spacing: 0px; -webkit-text-stroke-width: 0px; white-space: normal; background-color: rgb(251, 251, 251); text-decoration-thickness: initial; text-decoration-style: initial; text-decoration-color: initial;&quot;&gt;&#xa;&#xa;" style="shape=parallelogram;perimeter=parallelogramPerimeter;whiteSpace=wrap;html=1;fixedSize=1;" vertex="1" parent="1">
          <mxGeometry x="65" y="463.5" width="171" height="79" as="geometry" />
        </mxCell>
        <mxCell id="HQ5-qCOEkH6bOFP-6_Wn-19" value="iRemain &amp;gt; 0?" style="rhombus;whiteSpace=wrap;html=1;" vertex="1" parent="1">
          <mxGeometry x="304" y="648" width="173" height="80" as="geometry" />
        </mxCell>
        <mxCell id="HQ5-qCOEkH6bOFP-6_Wn-21" style="edgeStyle=orthogonalEdgeStyle;rounded=0;orthogonalLoop=1;jettySize=auto;html=1;entryX=0.463;entryY=0.009;entryDx=0;entryDy=0;entryPerimeter=0;" edge="1" parent="1" source="HQ5-qCOEkH6bOFP-6_Wn-17" target="HQ5-qCOEkH6bOFP-6_Wn-11">
          <mxGeometry relative="1" as="geometry" />
        </mxCell>
        <mxCell id="HQ5-qCOEkH6bOFP-6_Wn-22" value="Check for Arrival Time of Input[] -&amp;gt; Add to ReadyQueue if Process Arrival &amp;lt;= Finish of Current" style="rounded=0;whiteSpace=wrap;html=1;" vertex="1" parent="1">
          <mxGeometry x="563" y="615" width="239" height="118" as="geometry" />
        </mxCell>
        <mxCell id="HQ5-qCOEkH6bOFP-6_Wn-23" value="Yes" style="edgeStyle=orthogonalEdgeStyle;rounded=0;orthogonalLoop=1;jettySize=auto;html=1;entryX=0.009;entryY=0.622;entryDx=0;entryDy=0;entryPerimeter=0;" edge="1" parent="1" source="HQ5-qCOEkH6bOFP-6_Wn-19" target="HQ5-qCOEkH6bOFP-6_Wn-22">
          <mxGeometry relative="1" as="geometry" />
        </mxCell>
      </root>
    </mxGraphModel>
  </diagram>
</mxfile>
